PathFileType	4	(X/Y/Z)	C:/Users/beibeiliu/ov580/test_trc/capture2\sequence.33_training_dense_left.trc
DataRate	CameraRate	NumFrames	NumMarkers	Units	OrigDataRate	OrigDataStartFrame	OrigNumFrames
120	120	14	19	mm	120	43	336
Frame#	Time	ThumbCMC			ThumbMCP			ThumbIP			ThumbTip			IndexMCP			IndexPIP			IndexTip			MiddleMCP			MiddlePIP			MiddleTip			RingMCP			RingPIP			RingTip			PinkyMCP			PinkyPIP			PinkyTip			BackHand1			BackHand2			BackHand3	
		X0	Y0	Z0	X1	Y1	Z1	X2	Y2	Z2	X3	Y3	Z3	X4	Y4	Z4	X5	Y5	Z5	X6	Y6	Z6	X7	Y7	Z7	X8	Y8	Z8	X9	Y9	Z9	X10	Y10	Z10	X11	Y11	Z11	X12	Y12	Z12	X13	Y13	Z13	X14	Y14	Z14	X15	Y15	Z15	X16	Y16	Z16	X17	Y17	Z17	X18	Y18	Z18	
42	0.35	-125.997	52.1794	40.6824	-101.35	57.0799	22.0085	-93.0967	55.5465	-6.9343	-88.6616	50.4037	-27.6625	-137.872	56.9073	-29.6529	-113.11	52.1544	-50.6286	-82.6722	42.5675	-48.7325	-137.732	34.5562	-40.7058	-110.925	30.4349	-55.218	-77.056	28.3235	-39.9681	-138.578	13.0046	-35.9111	-108.031	10.376	-48.6766	-81.6957	15.2721	-31.4753	-139.26	-6.57122	-28.7856	-112.185	-3.17131	-40.9013	-86.1395	5.68051	-26.5258	-165.72	10.5039	15.5907	-167.081	6.88161	44.4193	-161.88	38.9809	34.2336	
43	0.358333	-125.502	54.0513	42.0666	-102.984	54.4651	20.263	-90.9862	57.689	-2.87596	-85.472	51.1526	-30.8977	-136.651	51.9418	-32.1063	-115.189	54.8395	-50.8587	-85.59	43.9782	-50.0299	-138.144	32.8949	-37.5274	-106.76	34.3126	-54.0449	-78.6613	27.8049	-37.2986	-134.83	15.2291	-38.52	-108.217	13.0654	-48.2092	-79.8628	13.6952	-26.8296	-136.474	-1.95084	-30.0765	-110.147	-2.46227	-40.1801	-85.3509	5.82834	-26.3053	-164.421	12.2268	12.195	-167.284	3.89637	43.3996	-161.2	40.6029	34.4196	
44	0.366667	-126.927	50.7395	42.608	-99.8783	57.5728	20.1529	-88.7131	60.5688	-8.8904	-87.0478	50.2817	-29.7953	-136.619	54.4847	-30.6068	-115.641	52.6942	-51.3252	-82.9295	43.319	-48.1201	-137.714	35.8895	-36.6717	-109.948	32.2768	-53.4495	-77.4655	30.2141	-34.8652	-132.807	13.7565	-39.4135	-106.155	13.2712	-47.539	-79.2615	14.9334	-23.8042	-136.367	-3.68844	-26.4295	-105.572	-1.80792	-38.6923	-83.2757	11.0624	-21.0606	-162.709	10.2541	13.8944	-164.945	8.72542	42.8518	-161.701	41.8967	30.3094	
45	0.375	-126.134	53.6596	38.9238	-100.875	58.0047	15.9771	-90.3254	58.4576	-5.90346	-84.8462	53.7558	-27.9458	-137.223	54.5753	-33.3685	-113.004	54.3051	-52.6101	-83.3796	46.7889	-49.087	-135.668	35.299	-41.0791	-104.778	30.6066	-53.1331	-77.6103	30.4973	-34.9362	-133.722	17.0654	-38.0927	-105.422	15.0437	-47.2598	-78.1381	18.484	-21.8928	-132.641	-4.39021	-31.4278	-105.151	-3.32581	-39.1402	-82.7568	8.99896	-23.9717	-162.374	5.59364	13.0137	-165.693	7.57332	43.9647	-161.212	39.1432	31.0339	
46	0.383333	-127.305	56.8469	34.1993	-100.454	61.3426	15.605	-90.4229	61.5922	-8.55485	-86.4057	50.8665	-33.4589	-138.606	54.335	-35.0604	-116.603	52.4335	-55.2008	-84.7099	43.7285	-50.8994	-136.322	36.2467	-43.2612	-103.746	34.0946	-55.421	-77.8811	30.8999	-35.6362	-133.528	10.2012	-39.5686	-103.53	15.8106	-48.8962	-78.3154	16.7418	-26.192	-131.399	-5.44241	-33.417	-107.851	-1.99025	-41.776	-83.955	8.89663	-24.6634	-161.998	9.31411	9.65246	-163.585	5.43335	42.0099	-160.989	39.839	28.1664	
47	0.391667	-126.073	57.2768	33.0973	-102.882	57.2507	11.6412	-88.8117	64.6545	-14.3786	-83.0902	56.7932	-36.0682	-137.644	53.079	-40.8595	-116.856	53.5305	-57.1637	-84.0779	47.3694	-54.7694	-138.136	32.5217	-43.3068	-106.938	29.3933	-58.6545	-77.4124	31.6329	-38.4483	-130.846	10.6602	-44.1253	-103.643	14.2658	-50.4897	-77.2949	17.6877	-28.033	-132.332	-5.27809	-31.7462	-104.159	-3.07092	-41.6917	-81.9242	10.5441	-24.1283	-160.089	6.97813	10.7797	-164.524	8.09214	36.9687	-162.287	39.728	25.5274	
48	0.4	-127.509	55.5612	32.1966	-103.229	57.3615	9.52141	-89.4003	64.9861	-16.9111	-86.4114	52.2438	-39.9076	-139.476	51.2781	-42.7459	-116.181	48.7355	-62.0373	-85.3457	43.6806	-58.411	-138.157	28.3855	-46.6884	-107.026	31.0579	-62.1369	-77.3433	32.5759	-41.8076	-133.031	11.647	-42.7625	-100.965	8.82697	-53.0021	-78.1774	21.1733	-30.1473	-129.454	-9.33614	-36.8347	-101.613	-2.52047	-43.8648	-81.4534	8.22933	-29.6842	-161.417	4.3152	7.90889	-162.743	5.26735	33.513	-162.356	34.342	23.3682	
49	0.408333	-126.424	58.7902	23.8695	-104.398	58.0465	4.71511	-91.7407	61.8931	-20.5133	-85.6548	53.21	-45.1923	-139.092	48.8661	-49.0499	-114.639	48.7351	-66.7302	-86.4829	44.4928	-62.7968	-138.845	27.647	-52.5255	-109.723	25.8727	-66.6751	-77.0915	25.2374	-47.0373	-133.134	6.9059	-48.5415	-101.834	9.60754	-57.1474	-77.1579	15.0482	-37.2379	-132.849	-7.89069	-34.0492	-105.386	-4.09913	-47.1777	-77.0618	6.0733	-32.7542	-162.193	5.16329	1.78951	-161.602	7.78951	32.4741	-161.787	36.3018	18.0091	
50	0.416667	-126.999	56.7243	23.78	-103.636	58.7443	-1.33483	-91.6638	59.579	-24.5759	-83.8163	53.9623	-49.2509	-141.259	48.5931	-48.8923	-117.644	42.0497	-72.4029	-89.3045	41.5619	-70.2312	-140.156	24.2463	-55.5435	-112.123	22.1941	-72.9295	-81.1804	21.9017	-58.6586	-135.336	5.67098	-50.2519	-102.188	4.28906	-61.3422	-77.0497	14.2419	-41.0972	-129.812	-11.8274	-40.8138	-104.307	-11.3087	-50.6401	-79.9235	3.79226	-41.3161	-161.863	4.08205	1.0394	-163.836	4.1103	28.362	-162.652	35.0254	13.5531	
51	0.425	-126.453	55.5289	18.974	-101.429	59.0698	-4.2391	-91.4508	56.2414	-29.2992	-84.1877	48.874	-56.2862	-143.065	42.5695	-55.5097	-121.578	39.717	-77.2958	-89.6226	34.9916	-76.1491	-142.583	21.1307	-59.0943	-119.16	20.4726	-79.0989	-80.1439	18.6805	-65.3525	-135.984	4.56082	-54.7666	-105.768	4.21237	-66.8718	-79.8474	7.9904	-50.0376	-131.869	-17.4867	-41.4523	-103.093	-11.274	-53.8818	-81.6398	3.45164	-43.7376	-161.15	3.69064	-3.72529	-162.228	1.44361	26.5231	-163.188	35.9148	8.96325	
52	0.433333	-129.119	50.8361	10.5815	-104.538	53.7953	-8.16013	-90.8893	55.2773	-40.2874	-84.555	45.2705	-59.9572	-146.007	36.1343	-58.4556	-126.946	32.6201	-82.315	-94.8257	28.4189	-83.8129	-144.788	14.3117	-66.7065	-122.703	14.674	-85.2003	-86.5467	18.1106	-77.3967	-137.714	-4.35061	-56.0361	-109.246	-1.07123	-71.632	-80.4364	5.60199	-56.0022	-131.006	-20.0418	-45.051	-103.239	-14.3225	-56.5502	-76.244	-1.03513	-46.9119	-160.387	1.33948	-8.1838	-164.202	-0.284115	25.4865	-163.537	33.8189	2.65386	
53	0.441667	-127.808	52.6731	7.35527	-103.323	53.5762	-18.8971	-89.6101	53.3677	-44.3045	-84.1513	42.3911	-62.58	-148.358	34.7747	-62.6941	-130.311	30.7435	-89.0297	-103.547	26.7477	-95.3198	-147.791	15.4221	-71.026	-124.245	9.04391	-92.0677	-90.4978	9.46564	-87.8507	-139.341	-2.12526	-62.9384	-112.846	-6.93748	-76.1483	-84.7911	2.61055	-67.0148	-133.686	-19.3181	-48.6822	-106.581	-16.2041	-61.2668	-80.4644	-4.54287	-54.5788	-163.89	-2.20425	-7.81228	-164.699	1.93666	19.428	-163.738	34.598	-2.37115	
54	0.45	-127.618	51.6552	-3.14515	-103.219	50.2108	-21.5332	-88.6513	50.2954	-47.7563	-82.3518	38.9059	-66.7355	-150.231	31.4975	-68.2828	-133.838	26.0503	-97.2905	-110.457	20.6224	-105.993	-151.52	7.00349	-71.948	-129.897	3.43813	-97.6352	-96.5198	2.889	-101.568	-140.623	-10.1999	-64.2339	-111.627	-13.4976	-80.6309	-85.6304	-2.25823	-72.3329	-132.44	-23.25	-53.6835	-107.056	-21.2529	-64.2906	-82.3527	-7.11647	-57.0768	-163.989	-2.97286	-13.8697	-162.455	0.25424	17.152	-161.619	33.1425	-5.67104	
55	0.458333	-126.64	48.5521	-6.46789	-100.223	48.881	-28.6822	-88.1124	44.8297	-50.8012	-77.3316	38.5227	-73.7256	-151.359	28.7638	-70.1105	-139.245	22.167	-99.1775	-117.129	14.5424	-115.067	-153.507	7.85534	-75.7668	-136.802	0.864809	-103.61	-107.981	-6.39706	-112.13	-142.737	-8.52923	-66.9928	-111.784	-15.3292	-85.8129	-85.4868	-6.96149	-78.257	-134.136	-26.7744	-55.3548	-110.283	-24.2959	-67.7146	-78.9914	-11.5392	-58.9891	-162.366	-0.119932	-17.0789	-163.372	4.51885	10.5328	-163.471	32.3279	-7.3113	
